<svg t="1654565707345" class="icon" viewBox="0 0 1024 1024" version="1.1" xmlns="http://www.w3.org/2000/svg" p-id="2271" width="200" height="200"><path d="M692.330667 622.570667l107.157333 46.784a21.333333 21.333333 0 0 1 0 39.104L520.746667 830.165333a21.333333 21.333333 0 0 1-17.066667 0l-278.762667-121.706666a21.333333 21.333333 0 0 1 0-39.104l107.157334-46.784 171.605333 74.901333a21.333333 21.333333 0 0 0 17.066667 0l171.605333-74.901333z m-0.384-176.917334l107.157333 46.805334a21.333333 21.333333 0 0 1 0 39.082666l-278.762667 121.706667a21.333333 21.333333 0 0 1-17.066666 0l-278.762667-121.706667a21.333333 21.333333 0 0 1 0-39.082666l107.157333-46.805334 171.605334 74.922667a21.333333 21.333333 0 0 0 17.066666 0l171.605334-74.922667zM520.725333 193.834667l278.762667 121.706666a21.333333 21.333333 0 0 1 0 39.104L520.746667 476.373333a21.333333 21.333333 0 0 1-17.066667 0l-278.762667-121.706666a21.333333 21.333333 0 0 1 0-39.104l278.762667-121.706667a21.333333 21.333333 0 0 1 17.066667 0z" fill="#cdcdcd" p-id="2272"></path></svg>