<svg t="1629855899994" class="icon" viewBox="0 0 1024 1024" version="1.1" xmlns="http://www.w3.org/2000/svg" p-id="1490" width="200" height="200"><path d="M854.308571 21.942857h-682.666666c-80.457143 0-146.285714 65.828571-146.285715 146.285714v682.666667c0 80.457143 65.828571 146.285714 146.285715 146.285714h682.666666c80.457143 0 146.285714-65.828571 146.285715-146.285714v-682.666667c0-80.457143-65.828571-146.285714-146.285715-146.285714z m-180.906666 518.826667l-73.630476 3.900952c-12.678095 1.462857-22.918095-2.925714-29.744762-13.165714l-29.744762-41.935238-35.596191 78.506666 101.912381 212.601905h-56.07619l-94.110476-189.19619-8.777143 86.79619c-0.975238 8.289524-4.388571 14.628571-10.24 19.992381-5.851429 4.87619-13.165714 7.801905-21.455238 7.801905h-160.914286c-12.190476 0-22.430476-10.24-22.430476-22.430476 0-12.190476 10.24-22.430476 22.430476-22.430476h142.384762l5.851428-78.994286c0.975238-18.041905 4.388571-34.620952 11.702858-48.761905l34.620952-72.167619H396.921905l-35.108572 59.001905c-1.950476 4.388571-5.36381 7.801905-10.24 9.752381-4.388571 1.950476-8.777143 1.462857-12.678095-0.487619-4.388571-1.950476-8.289524-5.36381-10.24-9.752381-1.462857-4.388571-1.462857-9.264762 0.487619-13.165715l30.72-60.464761c5.851429-10.24 12.190476-17.554286 19.017143-21.942858 7.314286-4.388571 15.60381-6.339048 26.331429-6.339047H497.371429c14.140952 0 28.281905 3.413333 40.472381 9.752381 12.190476 6.339048 22.918095 15.60381 30.72 27.306666l34.133333 47.786667 68.266667-3.413333c11.702857-0.487619 21.455238 8.289524 22.430476 19.992381 0.487619 10.727619-8.289524 20.967619-19.992381 21.455238z m-180.419048-180.419048c0-31.207619 25.84381-56.07619 57.539048-56.07619 31.695238 0 57.539048 25.35619 57.539047 56.07619s-25.84381 56.07619-57.539047 56.076191c-31.695238 0-57.539048-25.35619-57.539048-56.076191z m300.860953 398.384762c0 12.678095-10.24 22.430476-22.430477 22.430476-12.678095 0-22.430476-10.24-22.430476-22.430476V283.306667H478.841905c-12.678095 0-22.430476-10.24-22.430476-22.430477s10.24-22.430476 22.430476-22.430476h292.083809c12.678095 0 22.430476 10.24 22.430476 22.430476v497.859048z" p-id="1491" fill="#cdcdcd"></path></svg>