<svg t="1636615641765" class="icon" viewBox="0 0 1024 1024" version="1.1" xmlns="http://www.w3.org/2000/svg" p-id="2449" width="200" height="200"><path d="M514.747392 45.000704c-250.58304 0-453.721088 203.138048-453.721088 453.721088 0 250.579968 203.138048 453.715968 453.721088 453.715968 250.579968 0 453.715968-203.136 453.715968-453.715968C968.46336 248.139776 765.32736 45.000704 514.747392 45.000704zM518.718464 766.48448c-17.8944 0-32.403456-14.50496-32.403456-32.39936 0-17.896448 14.509056-32.401408 32.403456-32.401408s32.39936 14.50496 32.39936 32.401408C551.117824 751.97952 536.612864 766.48448 518.718464 766.48448zM635.424768 642.3808c-7.493632 2.62656-15.566848 0.019456-20.00896-5.948416-52.687872-51.026944-142.88384-50.466816-194.95424 1.371136l-4.673536 3.823616c-3.282944 2.54976-7.107584 3.785728-10.970112 3.785728-5.292032 0-10.50624-2.356224-14.021632-6.856704-6.064128-7.744512-4.673536-18.927616 3.05152-24.973312 34.494464-33.857536 78.298112-51.97312 124.806144-51.97312 46.623744 0 90.427392 18.173952 123.454464 51.142656l4.210688 6.740992C649.563136 628.784128 644.733952 639.1552 635.424768 642.3808zM772.514816 524.315648c-3.746816 4.132864-8.613888 6.412288-13.48096 6.412288-3.707904 0-7.416832-1.332224-10.545152-4.171776-64.237568-58.617856-149.296128-92.417024-229.79584-92.417024-81.002496 0-158.798848 29.705216-219.058176 83.667968-7.107584 6.412288-19.274752 7.223296-25.919488 0.34816-6.643712-6.914048-7.87968-16.571392-1.197056-23.465984l2.471936-2.54976c67.714048-60.664832 153.931776-93.61408 243.702784-93.61408 89.114624 0 183.17312 37.295104 251.582464 99.736576C777.4976 504.885248 779.081728 517.05344 772.514816 524.315648zM858.423296 406.674432c-90.23488-90.233856-211.216384-139.928576-340.580352-139.928576-128.514048 0-249.535488 49.790976-340.850688 140.218368-3.47648 3.437568-7.996416 5.156864-12.515328 5.156864-4.596736 0-9.15456-1.77664-12.63104-5.272576-6.914048-6.991872-6.87616-18.271232 0.115712-25.18528 97.998848-97.071104 227.9424-150.532096 365.881344-150.532096 138.866688 0 268.771328 53.402624 365.765632 150.358016 6.95296 6.95296 6.95296 18.23232 0 25.18528C876.655616 413.627392 865.376256 413.627392 858.423296 406.674432z" p-id="2450" fill="#cdcdcd"></path></svg>